<?xml version="1.0" encoding="utf-8"?>
<!-- Generator: Adobe Illustrator 16.0.3, SVG Export Plug-In . SVG Version: 6.00 Build 0)  -->
<!DOCTYPE svg PUBLIC "-//W3C//DTD SVG 1.1//EN" "http://www.w3.org/Graphics/SVG/1.1/DTD/svg11.dtd">
<svg version="1.1" id="Layer_1" xmlns="http://www.w3.org/2000/svg" xmlns:xlink="http://www.w3.org/1999/xlink" x="0px" y="0px"
	 width="53.242px" height="51.952px" viewBox="0 0 53.242 51.952" enable-background="new 0 0 53.242 51.952" xml:space="preserve">
<path fill-rule="evenodd" clip-rule="evenodd" fill="#A7A9AC" d="M31.749,38.524c1.322-0.292,2.479-0.491,3.604-0.807
	c5.018-1.408,7.933-5.12,8.274-10.369c0.207-3.184-0.106-6.194-2.215-8.801c-0.248-0.307-0.139-0.922-0.153-1.396
	c-0.052-1.627-0.031-3.257-0.142-4.879c-0.086-1.269-0.942-1.63-2.03-1.226c-1.53,0.569-3.055,1.184-4.5,1.938
	c-0.848,0.442-1.552,0.682-2.548,0.448c-3.653-0.856-7.327-0.752-11.002,0.001c-0.589,0.121-1.305-0.067-1.89-0.296
	c-1.689-0.66-3.322-1.468-5.019-2.11c-0.972-0.367-1.749-0.005-1.826,1.14c-0.112,1.665-0.113,3.338-0.214,5.005
	c-0.035,0.575-0.06,1.259-0.368,1.694c-4.915,6.945-1.283,16.959,6.937,19.016c0.884,0.221,1.784,0.376,2.692,0.564
	c-0.412,1.07-0.79,2.158-1.262,3.203c-0.125,0.275-0.514,0.49-0.829,0.61c-2.506,0.957-4.95,0.175-6.546-1.983
	c-0.646-0.873-1.328-1.764-2.16-2.441C9.579,37.043,8.4,36.663,6.935,37.44c0.355,0.436,0.643,0.796,0.94,1.148
	c0.93,1.101,2.207,2.056,2.728,3.323c1.332,3.241,3.737,4.278,6.961,4.112c0.723-0.037,1.444-0.109,2.41-0.184
	c0,1.676,0.132,3.351-0.044,4.992c-0.127,1.18-1.097,1.294-2.113,0.938c-3.139-1.097-5.972-2.73-8.495-4.888
	C0.524,39.363-2.395,27.061,2.065,16.362C6.414,5.929,17.393-0.861,28.379,0.088c12.033,1.04,21.581,9.19,24.202,20.661
	c2.953,12.926-4.234,26.29-16.59,30.843c-2.095,0.772-2.669,0.371-2.649-1.856c0.013-1.553,0.025-3.105,0.046-4.658
	C33.417,42.785,33.408,40.503,31.749,38.524z"/>
</svg>
